<mxfile host="app.diagrams.net" modified="2023-04-24T19:51:54.371Z" agent="Mozilla/5.0 (Windows NT 10.0; Win64; x64; rv:109.0) Gecko/20100101 Firefox/114.0" etag="6ETE_KMftd7zoPcMwLiF" version="21.2.1" type="device">
  <diagram name="Page-1" id="X1tS8BE6XSQj28hTmFbW">
    <mxGraphModel dx="844" dy="550" grid="1" gridSize="10" guides="1" tooltips="1" connect="1" arrows="1" fold="1" page="1" pageScale="1" pageWidth="550" pageHeight="480" background="#ffffff" math="0" shadow="0">
      <root>
        <mxCell id="0" />
        <mxCell id="1" parent="0" />
        <mxCell id="Nt5qtM5taWRgs9-8og7U-1" value="&lt;font style=&quot;font-size: 30px;&quot;&gt;[3, 4]&lt;/font&gt;" style="text;html=1;strokeColor=none;fillColor=none;align=center;verticalAlign=middle;whiteSpace=wrap;rounded=0;fontSize=30;fontFamily=Lucida Console;" vertex="1" parent="1">
          <mxGeometry y="10" width="150" height="60" as="geometry" />
        </mxCell>
        <mxCell id="Nt5qtM5taWRgs9-8og7U-5" value="&lt;p style=&quot;margin:0px;margin-top:4px;text-align:center;text-decoration:underline;&quot;&gt;&lt;font&gt;&lt;b&gt;Array.prototype&lt;/b&gt;&lt;br&gt;&lt;/font&gt;&lt;/p&gt;&lt;hr&gt;&lt;p style=&quot;margin:0px;margin-left:8px;&quot;&gt;&lt;font&gt;...&lt;/font&gt;&lt;/p&gt;&lt;p style=&quot;margin:0px;margin-left:8px;&quot;&gt;&lt;font&gt;&quot;map&quot;: function map()&lt;/font&gt;&lt;/p&gt;&lt;p style=&quot;margin:0px;margin-left:8px;&quot;&gt;&lt;font&gt;&quot;pop&quot;: function pop()&lt;/font&gt;&lt;/p&gt;&lt;p style=&quot;margin:0px;margin-left:8px;&quot;&gt;&lt;font&gt;&quot;push&quot;: function push()&lt;/font&gt;&lt;/p&gt;&lt;p style=&quot;margin:0px;margin-left:8px;&quot;&gt;&lt;font&gt;...&lt;/font&gt;&lt;/p&gt;&lt;p style=&quot;margin:0px;margin-left:8px;&quot;&gt;&lt;font&gt;[[Prototype]]: Object.prototype&lt;br&gt;&lt;/font&gt;&lt;/p&gt;" style="verticalAlign=top;align=left;overflow=fill;fontSize=12;fontFamily=Lucida Console;html=1;whiteSpace=wrap;fillColor=#d5e8d4;strokeColor=#82b366;" vertex="1" parent="1">
          <mxGeometry x="190" y="150" width="260" height="130" as="geometry" />
        </mxCell>
        <mxCell id="Nt5qtM5taWRgs9-8og7U-6" value="&lt;p style=&quot;margin:0px;margin-top:4px;text-align:center;text-decoration:underline;&quot;&gt;&lt;font&gt;&lt;b&gt;[3, 4]&lt;br&gt;&lt;/b&gt;&lt;/font&gt;&lt;/p&gt;&lt;hr&gt;&lt;p style=&quot;margin:0px;margin-left:8px;&quot;&gt;&lt;font&gt;&quot;0&quot;: 3&lt;/font&gt;&lt;/p&gt;&lt;p style=&quot;margin:0px;margin-left:8px;&quot;&gt;&lt;font&gt;&quot;1&quot;: 4&lt;/font&gt;&lt;/p&gt;&lt;p style=&quot;margin:0px;margin-left:8px;&quot;&gt;&lt;font&gt;[[Prototype]]: Array.prototype&lt;br&gt;&lt;/font&gt;&lt;/p&gt;" style="verticalAlign=top;align=left;overflow=fill;fontSize=12;fontFamily=Lucida Console;html=1;whiteSpace=wrap;fillColor=#d5e8d4;strokeColor=#82b366;" vertex="1" parent="1">
          <mxGeometry x="190" y="20" width="260" height="90" as="geometry" />
        </mxCell>
        <mxCell id="Nt5qtM5taWRgs9-8og7U-7" value="&lt;p style=&quot;margin:0px;margin-top:4px;text-align:center;text-decoration:underline;&quot;&gt;&lt;b&gt;Object.prototype&lt;/b&gt;&lt;br&gt;&lt;/p&gt;&lt;hr&gt;&lt;p style=&quot;margin:0px;margin-left:8px;&quot;&gt;...&lt;/p&gt;&lt;p style=&quot;margin:0px;margin-left:8px;&quot;&gt;&quot;toString&quot;: function toString()&lt;/p&gt;&lt;p style=&quot;margin:0px;margin-left:8px;&quot;&gt;&quot;&lt;span class=&quot;message-body-wrapper&quot;&gt;&lt;/span&gt;&lt;span class=&quot;message-body-wrapper&quot;&gt;&lt;/span&gt;isPrototypeOf&quot;: function&amp;nbsp;&lt;span class=&quot;message-body-wrapper&quot;&gt;&lt;/span&gt;isPrototypeOf()&lt;/p&gt;&lt;p style=&quot;margin:0px;margin-left:8px;&quot;&gt;...&lt;/p&gt;&lt;p style=&quot;margin:0px;margin-left:8px;&quot;&gt;[[Prototype]]: null&lt;br&gt;&lt;/p&gt;" style="verticalAlign=top;align=left;overflow=fill;fontSize=12;fontFamily=Lucida Console;html=1;whiteSpace=wrap;fillColor=#d5e8d4;strokeColor=#82b366;" vertex="1" parent="1">
          <mxGeometry x="190" y="320" width="320" height="120" as="geometry" />
        </mxCell>
        <mxCell id="Nt5qtM5taWRgs9-8og7U-12" value="" style="endArrow=classic;html=1;rounded=0;startArrow=oval;startFill=1;entryX=0.669;entryY=-0.046;entryDx=0;entryDy=0;entryPerimeter=0;" edge="1" parent="1" target="Nt5qtM5taWRgs9-8og7U-5">
          <mxGeometry width="50" height="50" relative="1" as="geometry">
            <mxPoint x="430" y="90" as="sourcePoint" />
            <mxPoint x="430" y="140" as="targetPoint" />
          </mxGeometry>
        </mxCell>
        <mxCell id="Nt5qtM5taWRgs9-8og7U-13" value="" style="endArrow=classic;html=1;rounded=0;startArrow=oval;startFill=1;entryX=0.669;entryY=-0.046;entryDx=0;entryDy=0;entryPerimeter=0;" edge="1" parent="1">
          <mxGeometry width="50" height="50" relative="1" as="geometry">
            <mxPoint x="438" y="260" as="sourcePoint" />
            <mxPoint x="372" y="314" as="targetPoint" />
          </mxGeometry>
        </mxCell>
        <mxCell id="Nt5qtM5taWRgs9-8og7U-19" value="own properties" style="shape=singleArrow;whiteSpace=wrap;html=1;rotation=-30;arrowWidth=0.5428203230275509;arrowSize=0.30205771365940054;" vertex="1" parent="1">
          <mxGeometry x="90" y="60" width="100" height="60" as="geometry" />
        </mxCell>
      </root>
    </mxGraphModel>
  </diagram>
</mxfile>
